<svg id="Layer_1" data-name="Layer 1" xmlns="http://www.w3.org/2000/svg" viewBox="0 0 43 43"><defs><style>.cls-1{fill:#484848;}</style></defs><title>clock</title><path class="cls-1" d="M21.17,1.72a19.84,19.84,0,0,0-20,19.7h0a19.85,19.85,0,0,0,20,19.7h0a19.86,19.86,0,0,0,20-19.7h0a19.85,19.85,0,0,0-20-19.7Zm0,37.77A18.2,18.2,0,0,1,2.83,21.43h0A18.18,18.18,0,0,1,21.17,3.36h0A18.2,18.2,0,0,1,39.51,21.42h0A18.2,18.2,0,0,1,21.2,39.49h0Z"/><rect class="cls-1" x="20.55" y="4.18" width="1.25" height="4.52"/><polygon class="cls-1" points="29.54 12.33 32.79 9.13 33.67 10 30.43 13.2 29.54 12.33"/><polygon class="cls-1" points="8.67 10.01 9.55 9.13 12.8 12.33 11.91 13.2 8.67 10.01"/><rect class="cls-1" x="33.67" y="20.81" width="4.59" height="1.23"/><rect class="cls-1" x="4.5" y="20.81" width="4.59" height="1.23"/><path class="cls-1" d="M13.25,31.28v2.84H29.09V31.28Zm15.24,2.46H13.85v-2H28.49Z"/><path class="cls-1" d="M21,19.38l-3.68-8.83L16.16,11l3.67,8.84a2,2,0,0,0-.34,2.8l.07.09a2.11,2.11,0,0,0,2.93.27,2,2,0,0,0,.33-2.81l-.06-.08A2.08,2.08,0,0,0,21,19.38Z"/>
</svg>