<svg id="Layer_1" data-name="Layer 1" xmlns="http://www.w3.org/2000/svg" viewBox="0 0 43 43"><defs><style>.cls-1{fill:#484848;}</style></defs><title>Artboard 1</title><path class="cls-1" d="M41.48,14.88h-3a24.61,24.61,0,0,1-2.45-3.69A9.48,9.48,0,0,0,30.59,7l-9.07-.23L12.45,7A10.19,10.19,0,0,0,7,11.19c-1.53,2.43-1,1.47-2.45,3.69H1.56A1.52,1.52,0,0,0,0,16.39H0v.25a1.52,1.52,0,0,0,1.52,1.52H3.28l-1,2.61A9.53,9.53,0,0,0,2,23.91v9.94A2.18,2.18,0,0,0,4.13,36H7.68a2.19,2.19,0,0,0,2.19-2.19V32.5H33.15v1.35A2.18,2.18,0,0,0,35.32,36h3.59a2.19,2.19,0,0,0,2.18-2.19V23.91a9.53,9.53,0,0,0-.37-3.14l-1-2.61h1.73A1.51,1.51,0,0,0,43,16.64v-.25a1.52,1.52,0,0,0-1.52-1.51ZM9.85,26.33l-4.61-.19a2,2,0,0,1-1.33-1.38,5.2,5.2,0,0,1-.05-2.48c.4-1.31,2-.63,2.86-.32,1.37.49,2.72,1,4.09,1.5a1.74,1.74,0,0,1,1.26,1.91c-.23,1-1.4.95-2.22.93Zm11.67-8.26A104.75,104.75,0,0,1,7.05,16.64l2.21-4.49c1-2.56,4.36-2.78,4.36-2.78l7.9-.09,7.9.09s3.42.22,4.36,2.78L36,16.64A104.75,104.75,0,0,1,21.52,18.07Zm17.66,6.69a2,2,0,0,1-1.34,1.33l-4.61.2c-.81,0-2,.05-2.17-1a1.74,1.74,0,0,1,1.26-1.91c1.36-.48,2.72-1,4.08-1.49.84-.3,2.44-.95,2.87.33A5.29,5.29,0,0,1,39.18,24.76Z"/></svg>