<svg fill="#484848" id="Layer_1" data-name="Layer 1" xmlns="http://www.w3.org/2000/svg" viewBox="0 0 45 45">
  <defs>
    <style>
      
    </style>
  </defs>
  <g>
    <path class="cls-1" d="M5.27,17.52V34.29A1.7,1.7,0,0,0,7,36H38.15a1.7,1.7,0,0,0,1.7-1.7V17.52Zm5.46,13.7a.67.67,0,1,1,.67-.67A.67.67,0,0,1,10.73,31.22Zm0-3a.67.67,0,1,1,.67-.67A.67.67,0,0,1,10.73,28.23Zm0-3a.67.67,0,1,1,.68-.67.67.67,0,0,1-.68.67Zm4,6a.67.67,0,0,1,0-1.35h0a.68.68,0,1,1,0,1.36Zm0-3a.67.67,0,0,1,0-1.35h0a.68.68,0,0,1,0,1.36h0Zm0-3a.67.67,0,0,1,0-1.35h0a.68.68,0,0,1,0,1.37Zm0-3a.67.67,0,0,1,0-1.35h0a.68.68,0,0,1,0,1.37Zm4,9a.67.67,0,0,1,0-1.35.68.68,0,1,1,0,1.37Zm0-3a.67.67,0,0,1,0-1.35.68.68,0,0,1,0,1.37Zm0-3a.67.67,0,0,1,0-1.35.69.69,0,1,1,0,1.38Zm0-3a.67.67,0,0,1,0-1.35.69.69,0,1,1,0,1.38Zm4,9a.67.67,0,1,1,0-1.35h0a.69.69,0,0,1,0,1.38Zm0-3a.67.67,0,1,1,0-1.35h0a.69.69,0,0,1,0,1.38Zm0-3a.67.67,0,1,1,0-1.35h0a.69.69,0,1,1,0,1.38Zm0-3a.67.67,0,1,1,0-1.35h0a.69.69,0,1,1,0,1.38Zm4,9a.67.67,0,1,1,0-1.35h0a.69.69,0,1,1,0,1.38Zm0-3a.67.67,0,1,1,0-1.35h0a.69.69,0,1,1,0,1.38Zm0-3a.67.67,0,1,1,0-1.35h0a.7.7,0,1,1,0,1.39Zm0-3a.67.67,0,1,1,0-1.35h0a.7.7,0,1,1,0,1.39Zm4,9a.67.67,0,1,1,0-1.35h0a.7.7,0,1,1,0,1.39Zm0-3a.67.67,0,1,1,0-1.35h0a.7.7,0,1,1,0,1.39Zm0-3a.67.67,0,1,1,0-1.35h0a.7.7,0,0,1,0,1.4Zm0-3a.67.67,0,1,1,0-1.35h0a.7.7,0,0,1,0,1.4h0Zm4,9a.67.67,0,1,1,0-1.35.7.7,0,0,1,0,1.4Zm0-3a.67.67,0,1,1,0-1.35.7.7,0,0,1,0,1.4Zm0-3a.67.67,0,1,1,0-1.35.71.71,0,0,1,0,1.41Zm0-3a.67.67,0,1,1,0-1.35.71.71,0,0,1,0,1.41Z"/>
    <path class="cls-1" d="M39.9,14.94V12.37a1.7,1.7,0,0,0-1.7-1.7h-4v.48a1.29,1.29,0,1,1-2.58,0v-.48H23.87v.48a1.29,1.29,0,1,1-2.58,0v-.48H13.53v.48a1.29,1.29,0,1,1-2.58,0v-.48H7a1.7,1.7,0,0,0-1.7,1.7h0v2.57Z"/>
    <path d="M38.2,8.1h-4V7.62a1.29,1.29,0,0,0-2.58,0V8.1H23.87V7.62a1.29,1.29,0,1,0-2.58,0V8.1H13.53V7.62a1.29,1.29,0,0,0-2.58,0V8.1H7A4.27,4.27,0,0,0,2.7,12.37h0V34.29A4.27,4.27,0,0,0,7,38.57H38.15a4.27,4.27,0,0,0,4.27-4.27V12.37A4.27,4.27,0,0,0,38.2,8.1ZM7,10.68h4v.48a1.29,1.29,0,1,0,2.58,0v-.48h7.77v.48a1.29,1.29,0,1,0,2.58,0v-.48h7.77v.48a1.29,1.29,0,1,0,2.58,0v-.48h4a1.7,1.7,0,0,1,1.7,1.7v2.57H5.27V12.37A1.7,1.7,0,0,1,7,10.68H7ZM38.2,36H7a1.7,1.7,0,0,1-1.74-1.65s0,0,0-.06V17.52H39.9V34.29A1.7,1.7,0,0,1,38.2,36Z"/>
    <path d="M14.68,20.91a.67.67,0,0,0,0,1.35h0a.67.67,0,1,0,0-1.35Z"/>
    <path d="M18.64,20.91a.67.67,0,1,0,.67.67A.67.67,0,0,0,18.64,20.91Z"/>
    <path d="M22.58,20.91a.67.67,0,1,0,.67.67A.67.67,0,0,0,22.58,20.91Z"/>
    <path d="M26.53,20.91a.67.67,0,1,0,0,1.35h0a.67.67,0,0,0,0-1.35Z"/>
    <path d="M30.49,20.91a.67.67,0,1,0,0,1.35h0a.67.67,0,1,0,0-1.35Z"/>
    <path d="M34.44,20.91a.67.67,0,1,0,.67.67A.67.67,0,0,0,34.44,20.91Z"/>
    <path d="M10.73,23.9a.67.67,0,1,0,.67.67A.67.67,0,0,0,10.73,23.9Z"/>
    <path d="M14.68,23.9a.67.67,0,0,0,0,1.35h0a.67.67,0,1,0,0-1.35Z"/>
    <path d="M18.64,23.9a.67.67,0,1,0,.67.67A.67.67,0,0,0,18.64,23.9Z"/>
    <path d="M22.58,23.9a.67.67,0,1,0,.67.67A.67.67,0,0,0,22.58,23.9Z"/>
    <path d="M26.53,23.9a.67.67,0,1,0,0,1.35h0a.67.67,0,0,0,0-1.35Z"/>
    <path d="M30.49,23.9a.67.67,0,1,0,0,1.35h0a.67.67,0,1,0,0-1.35Z"/>
    <path d="M34.44,23.9a.67.67,0,1,0,.67.67A.67.67,0,0,0,34.44,23.9Z"/>
    <path d="M10.73,26.89a.67.67,0,1,0,.67.67A.67.67,0,0,0,10.73,26.89Z"/>
    <path d="M14.68,26.89a.67.67,0,0,0,0,1.35h0a.67.67,0,1,0,0-1.35Z"/>
    <path d="M18.64,26.89a.67.67,0,1,0,.67.67A.67.67,0,0,0,18.64,26.89Z"/>
    <path d="M22.58,26.89a.67.67,0,1,0,.67.67A.67.67,0,0,0,22.58,26.89Z"/>
    <path d="M26.53,26.89a.67.67,0,1,0,0,1.35h0a.67.67,0,0,0,0-1.35Z"/>
    <path d="M30.49,26.89a.67.67,0,1,0,0,1.35h0a.67.67,0,1,0,0-1.35Z"/>
    <path d="M34.44,26.89a.67.67,0,1,0,.67.67A.67.67,0,0,0,34.44,26.89Z"/>
    <path d="M10.73,29.88a.67.67,0,1,0,.67.67A.67.67,0,0,0,10.73,29.88Z"/>
    <path d="M14.68,29.88a.67.67,0,1,0,.67.67A.67.67,0,0,0,14.68,29.88Z"/>
    <path d="M18.64,29.88a.67.67,0,1,0,.67.67A.67.67,0,0,0,18.64,29.88Z"/>
    <path d="M22.58,29.88a.67.67,0,1,0,.67.67.67.67,0,0,0-.67-.67Z"/>
    <path d="M26.53,29.88a.67.67,0,1,0,.67.67A.67.67,0,0,0,26.53,29.88Z"/>
    <path d="M30.49,29.88a.67.67,0,1,0,.67.67.67.67,0,0,0-.67-.67Z"/>
    <path d="M34.44,29.88a.67.67,0,1,0,.67.67A.67.67,0,0,0,34.44,29.88Z"/>
  </g>
</svg>
