<?xml version="1.0" encoding="utf-8"?>
<!-- Generator: Adobe Illustrator 21.0.0, SVG Export Plug-In . SVG Version: 6.00 Build 0)  -->
<svg version="1.1" id="Layer_1" xmlns="http://www.w3.org/2000/svg" xmlns:xlink="http://www.w3.org/1999/xlink" x="0px" y="0px"
	 viewBox="0 0 43 43" style="enable-background:new 0 0 43 43;" xml:space="preserve">
<style type="text/css">
	.st0{fill:#494848;}
</style>
<title>Artboard 1</title>
<g>
	<path class="st0" d="M14.5,19c4.9-4.9,6.8-10.6,4.4-13c-2.4-2.4-8.1-0.5-13,4.4s-6.8,10.6-4.4,13c0.7,0.7,1.7,1,2.8,1
		C7.1,24.4,11,22.5,14.5,19z M2.3,22.6c-1.9-1.9,0.1-7.1,4.4-11.3c3.2-3.2,6.9-5.1,9.3-5.1c0.8,0,1.5,0.2,2,0.7
		c1.9,1.9-0.1,7.1-4.4,11.3C9.4,22.4,4.2,24.4,2.3,22.6z"/>
	<path class="st0" d="M30.5,7l-1.2,1.3c-3,3.1-9.1,9.5-14.3,13.9c-3.4,2.9-6.3,4-8.1,4.3c-0.1,0-0.2,0.1-0.3,0.1
		c-1.6,0.3-2.5,0.1-2.5,0.1c0.7,0.4,1.6,1.1,2.3,1.7c0,0,0.1,0.1,0.1,0.1c0.2,0.1,0.3,0.3,0.5,0.4C7,29,7.2,29.1,7.3,29.2
		c0.1,0.1,0.2,0.2,0.2,0.2v0c0.7,0.6,1.4,1.4,2.2,2.2c2.9,3,6.1,6.4,9.5,6.4c5.4,0,21.3-17,23-18.9l0.4-0.4L30.5,7z M19.1,36.9
		c-2.8,0-6-3.4-8.6-6.1c-1.2-1.2-2.3-2.4-3.2-3.1c1.9-0.4,4.9-1.6,8.4-4.6c5.3-4.5,11.5-10.9,14.4-14l0.4-0.4l10.3,10.1
		C35.8,24.2,23.1,36.9,19.1,36.9z"/>
	
		<rect x="31.1" y="11.1" transform="matrix(0.6966 -0.7174 0.7174 0.6966 -9.143183e-02 26.8351)" class="st0" width="1.2" height="4.8"/>
	<rect x="27.4" y="14.7" transform="matrix(0.6963 -0.7178 0.7178 0.6963 -3.7916 25.2579)" class="st0" width="1.2" height="4.8"/>
	<rect x="25.9" y="16.6" transform="matrix(0.6966 -0.7174 0.7174 0.6966 -5.6177 24.7477)" class="st0" width="1.2" height="4.8"/>
	<rect x="29.1" y="12.6" transform="matrix(0.6966 -0.7174 0.7174 0.6966 -1.765 25.8358)" class="st0" width="1.2" height="4.8"/>
	<rect x="23.8" y="18.6" transform="matrix(0.6966 -0.7174 0.7174 0.6966 -7.6753 23.901)" class="st0" width="1.2" height="4.8"/>
	<rect x="21.4" y="20.6" transform="matrix(0.6967 -0.7174 0.7174 0.6967 -9.7808 22.778)" class="st0" width="1.2" height="4.8"/>
	
		<rect x="19.7" y="22.4" transform="matrix(0.6967 -0.7174 0.7174 0.6967 -11.6302 22.0499)" class="st0" width="1.2" height="4.8"/>
	
		<rect x="17.6" y="23.9" transform="matrix(0.6963 -0.7178 0.7178 0.6963 -13.3506 21.0235)" class="st0" width="1.2" height="4.8"/>
	
		<rect x="15.9" y="25.7" transform="matrix(0.6966 -0.7174 0.7174 0.6966 -15.1766 20.3312)" class="st0" width="1.2" height="4.8"/>
	<rect x="30.5" y="20.8" transform="matrix(0.7236 -0.6902 0.6902 0.7236 -6.9059 27.6514)" class="st0" width="1.2" height="3.2"/>
	
		<rect x="25.5" y="25.6" transform="matrix(0.7235 -0.6903 0.6903 0.7235 -11.5233 25.5521)" class="st0" width="1.2" height="3.2"/>
	<rect x="20.8" y="30.2" transform="matrix(0.7235 -0.6903 0.6903 0.7235 -16.0283 23.59)" class="st0" width="1.2" height="3.2"/>
	<rect x="35.1" y="16" transform="matrix(0.7235 -0.6904 0.6904 0.7235 -2.2792 29.5411)" class="st0" width="1.2" height="3.2"/>
</g>
</svg>
