<?xml version="1.0" encoding="utf-8"?>
<!-- Generator: Adobe Illustrator 21.0.0, SVG Export Plug-In . SVG Version: 6.00 Build 0)  -->
<svg version="1.1" id="Layer_1" xmlns="http://www.w3.org/2000/svg" xmlns:xlink="http://www.w3.org/1999/xlink" x="0px" y="0px"
	 viewBox="0 0 43 43" style="enable-background:new 0 0 43 43;" xml:space="preserve">
<style type="text/css">
	.st0{fill:#494848;}
</style>
<title>Artboard 1</title>
<g>
	<path class="st0" d="M27.9,20c-4.2,2.5-3.5,7.2-3,8.9c0,0,3.8-3.8,8.2-4.1l-8.7,8.7c-0.4,0.4-0.4,1.1,0,1.6c0.4,0.4,1.1,0.4,1.6,0
		l2.4-2.4c0.9,0.8,3,2.5,5.9,2.5c3.7,0,8.4-7,8.4-17.9C42.6,17.3,33.9,16.6,27.9,20z"/>
	<path class="st0" d="M35.4,14.1c0,0-2.2-7.3-7.4-8S14.4,5.1,10.9,7.3s-4.4,8.6-4.4,8.6H5c0,0-2.2-1.5-3.7-0.8s-1.4,4.4,2.2,4.4v2.2
		c0,0-1.1-0.1-1.1,2.3s0,12.3,0,12.3s0,1.1,1.4,1.1s3.7,0,3.7,0s1.1-0.1,1.1-1s0-3.2,0-3.2h11.7l2-2.4c0,0-2-2.6-2-5.4
		S23.3,14.1,35.4,14.1z M14.8,26.7c0,0-5,0-6.1,0s-2.2-1.5-1.6-3.2c0.7-1.7,3-1.8,5.4-0.5S14.8,26.7,14.8,26.7z"/>
</g>
</svg>
