<svg id="Layer_1" data-name="Layer 1" xmlns="http://www.w3.org/2000/svg" viewBox="0 0 43 43"><defs><style>.cls-1{fill:#484848;}</style></defs><title>engine</title><path class="cls-1" d="M38.67,15.86H35.56a1,1,0,0,0-1,1v2.27H32.78V16a1,1,0,0,0-1-1H27.3V12.84a1,1,0,0,0-1-1H21.65V9.18h3.82a1,1,0,0,0,0-2H11.74a1,1,0,0,0,0,2h4v2.66h-4a1,1,0,0,0-1,1h0V15H7.06a1,1,0,0,0-1,1h0v6.39H3.59V16a1,1,0,1,0-2,0h0V31a1,1,0,0,0,2,0V24.39H6.05V31a1,1,0,0,0,1,1h9.47l3.41,4.19a1,1,0,0,0,.78.37H31.8a1,1,0,0,0,1-1V30.62h1.77v2.59a1,1,0,0,0,1,1h3.11a1,1,0,0,0,.94-.64c4-10.45.09-17-.09-17.24A1,1,0,0,0,38.67,15.86ZM17.74,9.21h1.89v2.66H17.74Zm20.19,23H36.57V29.61a1,1,0,0,0-1-1H31.8a1,1,0,0,0-1,1h0v4.91H21.14l-3.38-4.13A1,1,0,0,0,17,30H8.07V17h3.67a1,1,0,0,0,1-1V13.85H25.29V16a1,1,0,0,0,1,1h4.49v3.12a1,1,0,0,0,1,1h2.74v3.54a1,1,0,0,0,2,0h0V17.88H38c.74,1.51,2.66,6.71-.08,14.33Z"/><path class="cls-1" d="M22.3,21.53H18.93l2.34-4.08a1,1,0,0,0-.39-1.39,1,1,0,0,0-1.38.39l-3.19,5.6a1,1,0,0,0,.35,1.37.93.93,0,0,0,.54.14h3.29l-2.38,3.83a1,1,0,0,0,1.71,1h0l3.34-5.31a1,1,0,0,0-.28-1.39,1.09,1.09,0,0,0-.61-.16Z"/></svg>