<svg id="Layer_1" data-name="Layer 1" xmlns="http://www.w3.org/2000/svg" viewBox="0 0 43 43"><defs><style>.cls-1{fill:#484848;}</style></defs><title>petrol</title><path class="cls-1" d="M40.16,20.88c-.38-1.79-.66-3.35-.82-4.48l-.25-4.93a5.78,5.78,0,0,0-1.41-3.4L34.22,4.21a1.29,1.29,0,0,0-2,1.61l.12.13L33.67,7.4c0,.54.21,3.81,1.79,5.3a3,3,0,0,0,1.25.66l.16,3.14v.13c.16,1.25.49,2.86.9,4.71.9,4.39,2.53,12.54.9,14.15a3,3,0,0,1-1.53.82A2.73,2.73,0,0,1,35,35.73a2.85,2.85,0,0,1-1-2.23V25.64a5.38,5.38,0,0,0-5.25-5.38h-1V3.05a1.52,1.52,0,0,0-1.51-1.53H8.59A1.52,1.52,0,0,0,7.06,3h0V38.14H4.66a.38.38,0,0,0-.38.36h0v2.61a.38.38,0,0,0,.37.37h25.5a.38.38,0,0,0,.38-.36h0V38.51a.38.38,0,0,0-.36-.38h-2.5V22.75h.9a2.84,2.84,0,0,1,2.77,2.86v7.86a5.41,5.41,0,0,0,1.94,4.18A4.94,4.94,0,0,0,37.4,38.8a5.45,5.45,0,0,0,3-1.53C42.77,35,41.78,28.7,40.16,20.88Zm-3.89-9.1A5.55,5.55,0,0,1,35.07,9l.71.74a2.85,2.85,0,0,1,.74,1.79V12A.64.64,0,0,1,36.27,11.78ZM9.87,5.57a1.38,1.38,0,0,1,1.37-1.36H23.4a1.37,1.37,0,0,1,1.36,1.36v8.69a1.37,1.37,0,0,1-1.36,1.36H11.24a1.37,1.37,0,0,1-1.36-1.36Z"/>
</svg>