<svg id="Layer_1" data-name="Layer 1" xmlns="http://www.w3.org/2000/svg" viewBox="0 0 43 43"><defs><style>.cls-1{fill:#484848;}</style></defs><title>gears</title><path class="cls-1" d="M21.5,1.5a20,20,0,1,0,20,20A20,20,0,0,0,21.5,1.5Zm0,37.22A17.22,17.22,0,1,1,38.72,21.5,17.22,17.22,0,0,1,21.5,38.72Z"/><path class="cls-1" d="M30,11.71a2.34,2.34,0,0,0-1.39,4.21V20.5H23V15.92a2.34,2.34,0,1,0-3.27-.49,2.28,2.28,0,0,0,.49.49V20.5H14.56V15.92a2.34,2.34,0,1,0-3.27-.5,2.37,2.37,0,0,0,.5.5V27.86a2.34,2.34,0,1,0,3.27.5,2.37,2.37,0,0,0-.5-.5V23.28h5.61v4.59a2.34,2.34,0,1,0,3.27.49,2.28,2.28,0,0,0-.49-.49V23.28h7a1.39,1.39,0,0,0,1.39-1.39h0v-6a2.34,2.34,0,0,0,.4-3.29A2.36,2.36,0,0,0,30,11.71Z"/>
</svg>