<?xml version="1.0" encoding="utf-8"?>
<!-- Generator: Adobe Illustrator 21.0.0, SVG Export Plug-In . SVG Version: 6.00 Build 0)  -->
<svg version="1.1" id="Layer_1" xmlns="http://www.w3.org/2000/svg" xmlns:xlink="http://www.w3.org/1999/xlink" x="0px" y="0px"
	 viewBox="0 0 43 43" style="enable-background:new 0 0 43 43;" xml:space="preserve">
<style type="text/css">
	.st0{fill:#494848;}
</style>
<title>Artboard 1</title>
<g>
	<polygon class="st0" points="12.7,6.3 0.4,36.7 4.8,36.7 15.2,6.3 	"/>
	<polygon class="st0" points="30.3,6.3 27.8,6.3 38.2,36.7 42.6,36.7 	"/>
	<path class="st0" d="M27,8.1l-0.4-1.8h-3.1l0.1,1.8h-1.4h-1.5h-1.4l0.1-1.8h-3.1L16,8.1l-1.1,4.5L9.1,36.7h8l0.2-2.8h3.5h1.5h3.5
		l0.2,2.8h8l-5.9-24.2L27,8.1z M19,12.6h1.7h1.5H24l0.6,6.9h-2.3h-1.5h-2.3L19,12.6z M22.2,31h-1.5h-3.2l0.6-7.6h2.6h1.5h2.6
		l0.6,7.6H22.2z"/>
</g>
</svg>
