<?xml version="1.0" encoding="utf-8"?>
<!-- Generator: Adobe Illustrator 21.0.0, SVG Export Plug-In . SVG Version: 6.00 Build 0)  -->
<svg version="1.1" id="Layer_1" xmlns="http://www.w3.org/2000/svg" xmlns:xlink="http://www.w3.org/1999/xlink" x="0px" y="0px"
	 viewBox="0 0 43 43" style="enable-background:new 0 0 43 43;" xml:space="preserve">
<style type="text/css">
	.st0{fill:#494848;}
</style>
<title>Artboard 1</title>
<g>
	<polygon class="st0" points="10.4,17.1 12.8,20.3 18.2,14.7 12.8,17.5 	"/>
	<rect x="20.4" y="15.9" class="st0" width="11.1" height="2.2"/>
	<polygon class="st0" points="10.4,25.4 12.8,28.6 18.2,23.1 12.8,25.8 	"/>
	<rect x="20.4" y="24.2" class="st0" width="11.1" height="2.2"/>
	<polygon class="st0" points="10.4,33.8 12.8,37 18.2,31.4 12.8,34.2 	"/>
	<rect x="20.4" y="32.6" class="st0" width="11.1" height="2.2"/>
	<path class="st0" d="M29.2,3.7V0.5H12.6v3.2H6v38.9h31V3.7H29.2z M14.8,2.7H27v1v2.2v2.3H14.8V5.9V3.7V2.7z M34.8,40.3H8.2V5.9h4.4
		v4.5h16.6V5.9h5.5V40.3z"/>
</g>
</svg>
