<?xml version="1.0" encoding="utf-8"?>
<!-- Generator: Adobe Illustrator 21.0.0, SVG Export Plug-In . SVG Version: 6.00 Build 0)  -->
<svg version="1.1" id="Layer_1" xmlns="http://www.w3.org/2000/svg" xmlns:xlink="http://www.w3.org/1999/xlink" x="0px" y="0px"
	 viewBox="0 0 43 43" style="enable-background:new 0 0 43 43;" xml:space="preserve">
<style type="text/css">
	.st0{fill:#494848;}
</style>
<title>Artboard 1</title>
<g>
	<path class="st0" d="M33.4,15L29.3,20c1.9,2,3.3,4.5,4.1,7l7-2.9C38.8,20.4,36.4,17.3,33.4,15z"/>
	<path class="st0" d="M41.2,26.2l-7.4,2.2c0.6,2.5,0.5,5-0.2,7h8.9c0-0.4,0-0.8,0-1.2C42.5,31.4,42,28.7,41.2,26.2z"/>
	<path class="st0" d="M1.5,25.3l1.8,0.6c1-2,2.8-4.8,5.9-7L7,16.3C4.4,18.7,2.6,21.8,1.5,25.3z"/>
	<path class="st0" d="M18.6,11c-4,0.5-7.4,1.9-10.1,3.9l2.1,3c2.2-1.3,4.9-2.2,8.3-2.3L18.6,11z"/>
	<path class="st0" d="M1.1,27.1c-0.4,1.7-0.6,3.5-0.6,5.4c0,1,0.1,1.9,0.2,2.9h1c0,0-0.1-4.6,1-7.9L1.1,27.1z"/>
	<path class="st0" d="M27.9,8.3c0,0,0.1-0.4-0.3-0.6c-0.4-0.1-0.5,0-0.6,0.2c0,0.1-0.7,1.4-1.6,3.4c-0.7,1.4-1.5,3.1-2.4,4.9
		c-3.1,6.4-6.9,14.1-6.9,14.1l0,0c-0.2,0.4-0.3,0.9-0.3,1.4c0,1.9,1.5,3.4,3.4,3.4s3.4-1.5,3.4-3.4l3.3-14.4l1.3-5.6L27.9,8.3z
		 M19.2,33.5c-1,0-1.7-0.8-1.7-1.7c0-1,0.8-1.7,1.7-1.7c1,0,1.7,0.8,1.7,1.7C20.9,32.7,20.2,33.5,19.2,33.5z"/>
	<path class="st0" d="M24.2,11.1c-0.9-0.1-1.8-0.2-2.7-0.2c-0.2,0-0.5,0-0.7,0l-0.4,4.8c0.5,0,0.9,0.1,1.4,0.2L24.2,11.1z"/>
	<path class="st0" d="M28.3,12.1L27,18c0.4,0.3,0.8,0.6,1.2,0.9l3.4-5.1C30.5,13.1,29.4,12.6,28.3,12.1z"/>
</g>
</svg>
