
<svg xmlns="http://www.w3.org/2000/svg" width="340.638" height="66.83" viewBox="0 0 340.638 66.83">
  <g id="logo" transform="translate(-140 -11)">
    <g id="A1_approved_logo" data-name="A1 approved logo" transform="translate(80 -47.28)">
      <path id="Path_1" data-name="Path 1" d="M216.2,123.708a1.37,1.37,0,0,0,1.4,1.4h14.575a1.37,1.37,0,0,0,1.4-1.4V59.689a1.37,1.37,0,0,0-1.4-1.4H218.726a2.985,2.985,0,0,0-2.229,1.127l-9.206,12.46s-.829,1.127.57,1.127h6.952a1.37,1.37,0,0,1,1.4,1.4v49.3Zm-35.685.006a1.308,1.308,0,0,0,1.342,1.4h15.728a1.37,1.37,0,0,0,1.4-1.4l.209-64.025a1.363,1.363,0,0,0-1.393-1.4H181.636a3.061,3.061,0,0,0-2.248,1.108L130,123.993s-.848,1.108.551,1.108h15.721a2.96,2.96,0,0,0,2.222-1.133l6.8-9.345a2.961,2.961,0,0,1,2.222-1.133h22.015a1.307,1.307,0,0,1,1.342,1.4Zm-13.328-23.42s-1.4,0-.57-1.127L181.3,79.178s.829-1.127.779.272l-.646,19.444a1.422,1.422,0,0,1-1.444,1.4Z" transform="translate(-25.587 -0.004)" fill="#ea6a00"/>
      <path id="Path_2" data-name="Path 2" d="M152.156,58.29a3.313,3.313,0,0,0-2.45,1.4L101.46,123.714s-1.051,1.4.342,1.4h6.863a3.313,3.313,0,0,0,2.45-1.4l48.246-64.025s1.051-1.4-.348-1.4Z" transform="translate(-15.07 -0.004)" fill="#fff"/>
      <path id="Path_3" data-name="Path 3" d="M111.076,58.286a3.313,3.313,0,0,0-2.45,1.4L60.38,123.7s-1.051,1.4.342,1.4H76.43a3.313,3.313,0,0,0,2.45-1.4l48.246-64.025s1.051-1.4-.342-1.4H111.076Z" fill="#fff"/>
      <path id="Path_4" data-name="Path 4" d="M485.949,122.047A7.735,7.735,0,0,1,481.922,121a7.557,7.557,0,0,1-2.811-2.919,9.339,9.339,0,0,1,0-8.535,7.468,7.468,0,0,1,2.811-2.919,8.24,8.24,0,0,1,8.054,0,7.6,7.6,0,0,1,2.811,2.919,9.339,9.339,0,0,1,0,8.535A7.468,7.468,0,0,1,489.976,121a7.735,7.735,0,0,1-4.027,1.051m7.864-26.257v12.771a8.77,8.77,0,0,0-3.28-3.444,9.022,9.022,0,0,0-4.7-1.235,9.849,9.849,0,0,0-4.945,1.254,8.906,8.906,0,0,0-3.463,3.52,10.468,10.468,0,0,0-1.254,5.148,10.343,10.343,0,0,0,1.254,5.129,9.073,9.073,0,0,0,3.463,3.52,9.734,9.734,0,0,0,4.945,1.273,9.2,9.2,0,0,0,4.755-1.235,8.4,8.4,0,0,0,3.261-3.52v4.609h1.836V95.79Zm-30.632,9.738a7.279,7.279,0,0,1,6.37,3.52,7.809,7.809,0,0,1,1.121,3.742h-14.98a8.446,8.446,0,0,1,1.14-3.761,6.938,6.938,0,0,1,2.64-2.583,7.549,7.549,0,0,1,3.71-.918m9.326,8.206a10.547,10.547,0,0,0-1.216-5.1,8.917,8.917,0,0,0-3.33-3.5,9.689,9.689,0,0,0-9.567.019,8.933,8.933,0,0,0-3.349,3.539,10.65,10.65,0,0,0-1.216,5.11,10.085,10.085,0,0,0,1.292,5.129,9.192,9.192,0,0,0,3.577,3.52,11.163,11.163,0,0,0,9.383.45,8.351,8.351,0,0,0,3.2-2.362l-1.089-1.235a6.854,6.854,0,0,1-2.716,2.039,8.934,8.934,0,0,1-3.539.69,8.825,8.825,0,0,1-4.179-.975,7.367,7.367,0,0,1-2.938-2.754,8.191,8.191,0,0,1-1.159-4.065h16.817Zm-21.983-9.7-7.864,17.488-7.788-17.488h-1.988l8.8,19.552H443.6l8.839-19.552h-1.912Zm-28.8,18.013A7.735,7.735,0,0,1,417.695,121a7.557,7.557,0,0,1-2.811-2.919,9.339,9.339,0,0,1,0-8.535,7.468,7.468,0,0,1,2.811-2.919,8.24,8.24,0,0,1,8.054,0,7.6,7.6,0,0,1,2.811,2.919,9.339,9.339,0,0,1,0,8.535A7.468,7.468,0,0,1,425.749,121a7.735,7.735,0,0,1-4.027,1.051m0,1.684a9.912,9.912,0,0,0,5-1.273,9.132,9.132,0,0,0,3.5-3.539,10.894,10.894,0,0,0,0-10.219,9.218,9.218,0,0,0-3.5-3.539,10.466,10.466,0,0,0-10,0,9.132,9.132,0,0,0-3.5,3.539,10.894,10.894,0,0,0,0,10.219,9.132,9.132,0,0,0,3.5,3.539,9.912,9.912,0,0,0,5,1.273M401.651,108.3v-4.267h-1.8v19.552h1.874V113.4a8.166,8.166,0,0,1,1.836-5.673,6.493,6.493,0,0,1,5.1-2.039l.45.038v-1.836a8.9,8.9,0,0,0-4.641,1.14,6.678,6.678,0,0,0-2.818,3.273m-17.38,13.746A7.735,7.735,0,0,1,380.244,121a7.557,7.557,0,0,1-2.811-2.919,9.339,9.339,0,0,1,0-8.535,7.468,7.468,0,0,1,2.811-2.919,8.276,8.276,0,0,1,8.073,0,7.557,7.557,0,0,1,2.83,2.919,9.339,9.339,0,0,1,0,8.535,7.428,7.428,0,0,1-2.83,2.919,7.836,7.836,0,0,1-4.046,1.051m.114-18.165a9.116,9.116,0,0,0-4.736,1.254,8.541,8.541,0,0,0-3.28,3.5v-4.609h-1.8v26.814h1.874v-11.72a8.4,8.4,0,0,0,3.261,3.387,9.16,9.16,0,0,0,4.679,1.216,9.849,9.849,0,0,0,4.945-1.254,8.906,8.906,0,0,0,3.463-3.52,10.468,10.468,0,0,0,1.254-5.148,10.343,10.343,0,0,0-1.254-5.129,9.116,9.116,0,0,0-3.463-3.52,9.734,9.734,0,0,0-4.945-1.273m-25.4,18.165A7.735,7.735,0,0,1,354.962,121a7.557,7.557,0,0,1-2.811-2.919,9.339,9.339,0,0,1,0-8.535,7.468,7.468,0,0,1,2.811-2.919,8.276,8.276,0,0,1,8.073,0,7.557,7.557,0,0,1,2.83,2.919,9.339,9.339,0,0,1,0,8.535,7.428,7.428,0,0,1-2.83,2.919,7.836,7.836,0,0,1-4.046,1.051m.114-18.165a9.1,9.1,0,0,0-4.736,1.254,8.541,8.541,0,0,0-3.28,3.5v-4.609h-1.8v26.814h1.874v-11.72a8.4,8.4,0,0,0,3.261,3.387,9.16,9.16,0,0,0,4.679,1.216,9.849,9.849,0,0,0,4.945-1.254,8.906,8.906,0,0,0,3.463-3.52,10.468,10.468,0,0,0,1.254-5.148,10.343,10.343,0,0,0-1.254-5.129,9.116,9.116,0,0,0-3.463-3.52,9.733,9.733,0,0,0-4.945-1.273m-33.855,10.713L332.1,99.462l6.889,15.132Zm17.83,8.984h2.058L333.074,97.36h-1.912L319.1,123.579h2.058l3.33-7.376h15.2Z" transform="translate(-95.05 -13.76)" fill="#fff"/>
    </g>
  </g>
</svg>
